{"asset":{"generator":"Khronos glTF Blender I/O v1.8.19","version":"2.0"},"scene":0,"scenes":[{"name":"Scene","nodes":[0,1]}],"nodes":[{"mesh":0,"name":"Text","rotation":[0.7071068286895752,0,0,0.7071068286895752],"scale":[0.6537467837333679,0.6537467837333679,0.6537467837333679],"translation":[-1.0379942655563354,2.996922016143799,-0.2748836278915405]},{"mesh":1,"name":"LINE"}],"animations":[{"channels":[{"sampler":0,"target":{"node":0,"path":"translation"}},{"sampler":1,"target":{"node":0,"path":"rotation"}},{"sampler":2,"target":{"node":0,"path":"scale"}}],"name":"TextAction","samplers":[{"input":8,"interpolation":"STEP","output":9},{"input":8,"interpolation":"STEP","output":10},{"input":8,"interpolation":"STEP","output":11}]}],"materials":[{"doubleSided":true,"name":"Material","pbrMetallicRoughness":{"baseColorFactor":[0.10767528414726257,0.08994319289922714,0.06990435719490051,1],"metallicFactor":0.5425220131874084,"roughnessFactor":0.5}}],"meshes":[{"name":"Text","primitives":[{"attributes":{"POSITION":0,"NORMAL":1,"TEXCOORD_0":2},"indices":3,"material":0}]},{"name":"LINE","primitives":[{"attributes":{"POSITION":4,"NORMAL":5,"TEXCOORD_0":6},"indices":7,"material":0}]}],"accessors":[{"bufferView":0,"componentType":5126,"count":346,"max":[4.187260150909424,0,0],"min":[0.10779999941587448,0,-1.056439995765686],"type":"VEC3"},{"bufferView":1,"componentType":5126,"count":346,"type":"VEC3"},{"bufferView":2,"componentType":5126,"count":346,"type":"VEC2"},{"bufferView":3,"componentType":5123,"count":771,"type":"SCALAR"},{"bufferView":4,"componentType":5126,"count":34864,"max":[3.9765028953552246,8.261002540588379,0.11552675813436508],"min":[-3.3160910606384277,2.3829338550567627,-3.045336961746216],"type":"VEC3"},{"bufferView":5,"componentType":5126,"count":34864,"type":"VEC3"},{"bufferView":6,"componentType":5126,"count":34864,"type":"VEC2"},{"bufferView":7,"componentType":5123,"count":52296,"type":"SCALAR"},{"bufferView":8,"componentType":5126,"count":1,"max":[0.041666666666666664],"min":[0.041666666666666664],"type":"SCALAR"},{"bufferView":9,"componentType":5126,"count":1,"type":"VEC3"},{"bufferView":10,"componentType":5126,"count":1,"type":"VEC4"},{"bufferView":11,"componentType":5126,"count":1,"type":"VEC3"}],"bufferViews":[{"buffer":0,"byteLength":4152,"byteOffset":0},{"buffer":0,"byteLength":4152,"byteOffset":4152},{"buffer":0,"byteLength":2768,"byteOffset":8304},{"buffer":0,"byteLength":1542,"byteOffset":11072},{"buffer":0,"byteLength":418368,"byteOffset":12616},{"buffer":0,"byteLength":418368,"byteOffset":430984},{"buffer":0,"byteLength":278912,"byteOffset":849352},{"buffer":0,"byteLength":104592,"byteOffset":1128264},{"buffer":0,"byteLength":4,"byteOffset":1232856},{"buffer":0,"byteLength":12,"byteOffset":1232860},{"buffer":0,"byteLength":16,"byteOffset":1232872},{"buffer":0,"byteLength":12,"byteOffset":1232888}],"buffers":[{"byteLength":1232900,"uri":"data:application/octet-stream;base64,"}]}